# xmcd CD database file
#
# Track frame offsets:
#	150
#	24582
#	70280
#	103290
#	137060
#	171465
#	203192
#	250380
#
# Disc length: 3705 seconds
#
# Revision: 0
# Processed by: cddbd v1.4PL0 Copyright (c) Steve Scherf et al.
# Submitted via: CDex 1.50beta10
#
DISCID=7a0e7708
DTITLE=MANHATTAN JAZZ QUINTET - THE ORIGINAL VOICE
DYEAR=1998
DGENRE=Jazz
TTITLE0=STAIR STEPS
TTITLE1=FREEWAY
TTITLE2=KICKIN'
TTITLE3=MOSTRY MOONLIGHT
TTITLE4=DORIAN MOOD
TTITLE5=MEMORY OF YOU
TTITLE6=CONVERSATING
TTITLE7=SOMETHING CUBANO
EXTD=YEAR: 1998
EXTT0=
EXTT1=
EXTT2=
EXTT3=
EXTT4=
EXTT5=
EXTT6=
EXTT7=
PLAYORDER=
